<?xml version="1.0" encoding="UTF-8"?>
<svg
  version="1.1"
  viewBox="0 0 1024 1024"
  xmlns="http://www.w3.org/2000/svg"
>
  <path
    fill="#2c3e66"
    d="m512 0c-141.82 0-256 57.088-256 128v102.4h256v25.6h-384c-70.912 0-128 114.18-128 256s57.088 256 128 256h102.4c0-64.533 3.9674-113.36 13.4-151.09 9.4328-37.73 24.8-64.83 47.4-82.91 45.201-36.162 112-34.801 208-34.801 108.8 0 176.94-1.472 214.8-29.51 18.929-14.02 32.079-34.767 41-68.934 8.9216-34.167 13.001-81.288 13.001-144.76v-128c0-70.912-114.18-128-256-128zm-140.8 80.644a47.36 47.36 0 0 1 47.356 47.356 47.36 47.36 0 0 1-47.356 47.356 47.36 47.36 0 0 1-47.356-47.356 47.36 47.36 0 0 1 47.356-47.356zm422.4 175.36c0 64.533-3.9211 113.41-13.801 151.24-9.8773 37.833-26.327 65.086-50.601 83.066-48.544 35.959-121.2 34.49-230 34.49-96 0-157.2 1.3653-192 29.201-17.399 13.918-30.033 34.842-38.6 69.109-8.5672 34.27-12.6 81.423-12.6 144.89v128c0 70.912 114.18 128 256 128s256-57.088 256-128v-102.4h-256v-25.6h384c70.912 0 128-114.18 128-256s-57.088-256-128-256zm-140.8 592.64a47.36 47.36 0 0 1 47.356 47.356 47.36 47.36 0 0 1-47.356 47.356 47.36 47.36 0 0 1-47.356-47.356 47.36 47.36 0 0 1 47.356-47.356z"
  />
</svg>
