<?xml version="1.0" encoding="UTF-8"?>
<svg width="1e3" height="760" version="1.1" viewBox="0 0 1e3 760" xmlns="http://www.w3.org/2000/svg">
 <defs>
  <clipPath id="_clip1-1-5">
   <ellipse cx="1698" cy="554.5" rx="243.7" ry="53.18"/>
  </clipPath>
  <clipPath id="_clip2-7-5">
   <path d="m1748 595c2.9-17.45 10.74-38.69 23.31-61.88 26.46-48.85 75.07-112.1 98.88-173.4 6.88-17.62 12.61-38.16 10.32-56.68-1.4-11.39-5.86-22.23-18.69-27.24-21-7.562-31.91-30.75-24.34-51.74 7.56-21 30.74-31.9 51.74-24.34 37.6 12.41 58.54 37.94 69.61 68.01 13.55 36.75 8.28 83.5-4.54 122.3-5.76 17.42-13.23 35.03-21.55 52.6-18.34 38.73-41.43 76.96-59.82 110.7-9.77 17.93-18.56 33.75-22.38 46.9 22.69-2.025 38.99-3.256 51.9-3.792 14.8-0.614 24.23-0.067 34.49-1.731 13.83-2.245 28.78-6.394 58.43-16.45 9.79-3.177 37.62-15.81 55.1-41.61 12.3-18.16 20.57-41.3 15.04-71.33-1.44-4.709 1.21-9.703 5.92-11.14s9.71 1.213 11.15 5.922c15.75 36.07 11.37 67.64 1.1 93.99-10.29 26.37-28.38 46.4-43.59 59.51 17.93-1.726 34.77-2.321 45.54-0.901 19.84 2.616 32.42 11.76 39.32 18.99 11.38 11.92 18.52 24.91 19.02 63.23 0.66 52-16.85 95.2-187.1 112.5-32.25 3.285-96.52-1.278-124.4-10.76-16.42-5.586-32.63-14.41-46.57-28.01-30.13-5.652-73.58-22.36-93.82-47.24-19.04-23.4-26.5-51.25-9.61-82.96 13.24-24.84 27.83-35.36 44.09-40.22 6.46-1.928 13.48-3.07 21.41-3.205z"/>
  </clipPath>
  <clipPath id="_clip3-4-2">
   <path d="m1628 466.6c-0.39 1.475-4.26 8.606-5.97 10.24-1.15 1.094-6.61 5.521-7.6 5.975-5.16 2.357-10.99 2.825-16.56 2.041-3.05-0.429-6.04-1.226-8.92-2.308-2.13-0.801-4.2-1.76-6.2-2.859-1.52-0.84-3-1.763-4.42-2.762-1.16-0.808-2.27-1.667-3.35-2.575-0.9-0.761-1.77-1.556-2.6-2.386-4.46-4.42-8.06-9.919-9.48-16.1-0.29-1.262-0.49-2.546-0.6-3.837-0.1-1.265-0.11-2.538-0.04-3.805 0.05-0.924 0.15-1.845 0.3-2.76 1.06-6.821 4.45-13.09 8.71-18.44 0.79-0.995 1.62-1.963 2.47-2.904 1.11-1.218 2.27-2.391 3.47-3.52 1.53-1.44 3.12-2.809 4.78-4.104 2.11-1.655 4.32-3.191 6.6-4.597 2.99-1.835 6.11-3.455 9.37-4.759 1.23-0.496 2.49-0.945 3.77-1.316 1.02-0.297 2.06-0.549 3.11-0.754 5.72-1.118 11.88-0.862 17.23 1.592 1.11 0.506 2.16 1.107 3.17 1.786 1.17 0.788 2.29 1.661 3.29 2.651 0.53 0.519 1.03 1.074 1.44 1.689 0.21 0.316 3.58-3.035 3.94-3.393 4.22-4.224 13.79-5.772 17.82-0.405 9.71 12.95-12.54 17.06-10.94 21.87 2.89 8.653 18.16 19.43 25.54 23.12 2.88 1.441 19.97 8.692 19.25 11.55-1.48 5.927-21.61 12.26-29.4 10.7-7.38-1.476-14.5-5.72-21.46-8.506-0.72-0.285-5.11-1.738-6.71-1.155z"/>
  </clipPath>
  <clipPath id="_clip4-0-1">
   <path d="m1628 466.6c-0.39 1.475-4.26 8.606-5.97 10.24-1.15 1.094-6.61 5.521-7.6 5.975-5.16 2.357-10.99 2.825-16.56 2.041-3.05-0.429-6.04-1.226-8.92-2.308-2.13-0.801-4.2-1.76-6.2-2.859-1.52-0.84-3-1.763-4.42-2.762-1.16-0.808-2.27-1.667-3.35-2.575-0.9-0.761-1.77-1.556-2.6-2.386-4.46-4.42-8.06-9.919-9.48-16.1-0.29-1.262-0.49-2.546-0.6-3.837-0.1-1.265-0.11-2.538-0.04-3.805 0.05-0.924 0.15-1.845 0.3-2.76 1.06-6.821 4.45-13.09 8.71-18.44 0.79-0.995 1.62-1.963 2.47-2.904 1.11-1.218 2.27-2.391 3.47-3.52 1.53-1.44 3.12-2.809 4.78-4.104 2.11-1.655 4.32-3.191 6.6-4.597 2.99-1.835 6.11-3.455 9.37-4.759 1.23-0.496 2.49-0.945 3.77-1.316 1.02-0.297 2.06-0.549 3.11-0.754 5.72-1.118 11.88-0.862 17.23 1.592 1.11 0.506 2.16 1.107 3.17 1.786 1.17 0.788 2.29 1.661 3.29 2.651 0.53 0.519 1.03 1.074 1.44 1.689 0.21 0.316 3.58-3.035 3.94-3.393 4.22-4.224 13.79-5.772 17.82-0.405 9.71 12.95-12.54 17.06-10.94 21.87 2.89 8.653 18.16 19.43 25.54 23.12 2.88 1.441 19.97 8.692 19.25 11.55-1.48 5.927-21.61 12.26-29.4 10.7-7.38-1.476-14.5-5.72-21.46-8.506-0.72-0.285-5.11-1.738-6.71-1.155z"/>
  </clipPath>
  <clipPath id="_clip5-2-7">
   <path d="m1844 120.4c-4.31-1.464-10.22-3.075-17.36-2.908-6.12 0.143-11.53 2.118-16.93 5.2-2.24 1.284-4.76 2.28-6.69 4.054-6.75 6.188-11.54 16.25-11.99 25.12-0.7 13.63 0.21 19.97 1.48 23.52 0.42 1.177 3.01 4.065 4.07 4.772 1.41 0.941 5.38 1.127 6.84 0.862 5.7-1.038 7.85-2.594 15.81-5.18 17.2-5.589 23.68-10.87 33.76-23 4.65-5.602 17.22-6.162 15.93-10.09-2.48-7.523-12.06-17.97-24.92-22.34z"/>
  </clipPath>
  <clipPath id="_clip6-8-9">
   <ellipse cx="1802" cy="131.7" rx="10.87" ry="10.93"/>
  </clipPath>
  <clipPath id="_clip7-0-6">
   <ellipse cx="1878" cy="113.2" rx="1.97" ry="8.037"/>
  </clipPath>
  <clipPath id="_clip8-3-6">
   <ellipse cx="1802" cy="131.7" rx="10.87" ry="10.93"/>
  </clipPath>
  <clipPath id="_clip9-7-6">
   <ellipse cx="1878" cy="113.2" rx="1.97" ry="8.037"/>
  </clipPath>
  <clipPath id="_clip10-8">
   <ellipse cx="1666" cy="281.5" rx="10.19" ry="10.59"/>
  </clipPath>
  <clipPath id="_clip11-9">
   <ellipse cx="1666" cy="281.5" rx="10.19" ry="10.59"/>
  </clipPath>
  <clipPath id="_clip12-0">
   <ellipse cx="1666" cy="281.5" rx="10.19" ry="10.59"/>
  </clipPath>
  <clipPath id="_clip13-3">
   <ellipse cx="1666" cy="281.5" rx="10.19" ry="10.59"/>
  </clipPath>
  <clipPath id="_clip14-5">
   <ellipse cx="1666" cy="281.5" rx="10.19" ry="10.59"/>
  </clipPath>
  <clipPath id="_clip15-2">
   <ellipse cx="1666" cy="281.5" rx="10.19" ry="10.59"/>
  </clipPath>
  <clipPath id="_clip16-8">
   <ellipse cx="1666" cy="281.5" rx="10.19" ry="10.59"/>
  </clipPath>
  <clipPath id="_clip17-7">
   <ellipse cx="1666" cy="281.5" rx="10.19" ry="10.59"/>
  </clipPath>
  <clipPath id="_clip18-6">
   <ellipse cx="1666" cy="281.5" rx="10.19" ry="10.59"/>
  </clipPath>
  <clipPath id="_clip19-2">
   <ellipse cx="1666" cy="281.5" rx="10.19" ry="10.59"/>
  </clipPath>
  <clipPath id="_clip20-3">
   <ellipse cx="1666" cy="281.5" rx="10.19" ry="10.59"/>
  </clipPath>
  <clipPath id="_clip21-9">
   <ellipse cx="1666" cy="281.5" rx="10.19" ry="10.59"/>
  </clipPath>
  <clipPath id="_clip22-7">
   <ellipse cx="1666" cy="281.5" rx="10.19" ry="10.59"/>
  </clipPath>
  <clipPath id="_clip23-4">
   <ellipse cx="1666" cy="281.5" rx="10.19" ry="10.59"/>
  </clipPath>
  <clipPath id="_clip24-0">
   <ellipse cx="1666" cy="281.5" rx="10.19" ry="10.59"/>
  </clipPath>
  <clipPath id="_clip25-6">
   <ellipse cx="1666" cy="281.5" rx="10.19" ry="10.59"/>
  </clipPath>
 </defs>
 <g transform="matrix(1.038 0 0 1.012 .5569 -128.9)" clip-rule="evenodd" fill-rule="evenodd" stroke-linecap="square" stroke-miterlimit="1.5">
  <g transform="matrix(-1.818,0,0,1.165,3568,121.4)">
   <ellipse cx="1698" cy="554.5" rx="243.7" ry="53.18" fill="#f5f1e5"/>
   <clipPath>
    <ellipse cx="1698" cy="554.5" rx="243.7" ry="53.18"/>
   </clipPath>
   <g clip-path="url(#_clip1-1-5)">
    <g transform="matrix(1.147 .09719 -.03449 .992 -317.5 -374.1)">
     <ellipse cx="1843" cy="723" rx="122.7" ry="52.13" fill="#dedcc5"/>
    </g>
    <g transform="matrix(.9338 0 0 .7488 -123.8 -.5986)">
     <ellipse cx="1843" cy="723" rx="122.7" ry="52.13" fill="#dedcc5"/>
    </g>
    <g transform="matrix(-.5602 0 0 1.225 2637 -460.7)">
     <path d="m1918 832.1-447.1 1.363 48.58 38.69 464.7 2.379z" fill="#dedcc5"/>
    </g>
   </g>
  </g>
  <g transform="matrix(.9368 0 0 .7865 -1149 72.94)">
   <g transform="matrix(1.287,0,0,1.287,-550.9,-196.7)">
    <g transform="rotate(-22.79,2331,1084)">
     <rect x="2150" y="425.8" width="11.97" height="277.3" fill="#cbd4e1"/>
     <g transform="matrix(.5618 0 0 1 954 0)">
      <rect x="2150" y="425.8" width="11.97" height="277.3" fill="#a6b6cd"/>
     </g>
     <g transform="matrix(.9585 0 0 1 89.5 -7.69)">
      <rect x="2153" y="710.8" width="12.49" height="12.56" fill="#323840"/>
     </g>
    </g>
    <g transform="rotate(22.9,1748,-108.2)">
     <rect x="2150" y="425.8" width="11.97" height="277.3" fill="#cbd4e1"/>
     <g transform="matrix(.5618 0 0 1 954 0)">
      <rect x="2150" y="425.8" width="11.97" height="277.3" fill="#a6b6cd"/>
     </g>
     <g transform="matrix(.9585 0 0 1 89.5 -7.69)">
      <rect x="2153" y="710.8" width="12.49" height="12.56" fill="#323840"/>
     </g>
    </g>
    <g transform="translate(-240.9,114.2)">
     <rect x="2150" y="425.8" width="11.97" height="277.3" fill="#cbd4e1"/>
     <g transform="matrix(.5618 0 0 1 954 0)">
      <rect x="2150" y="425.8" width="11.97" height="277.3" fill="#a6b6cd"/>
     </g>
     <g transform="matrix(.9585 0 0 1 89.5 -7.69)">
      <rect x="2153" y="710.8" width="12.49" height="12.56" fill="#323840"/>
     </g>
    </g>
   </g>
   <g transform="matrix(1.101,0,0,1.069,-389,79.97)">
    <rect x="1940" y="45.02" width="311.2" height="425.2" fill="#dee4ec"/>
   </g>
   <g transform="matrix(1.101 0 0 .1228 -389 122.6)">
    <rect x="1940" y="45.02" width="311.2" height="425.2" fill="#cbd4e1"/>
   </g>
   <g transform="matrix(1.03 0 0 .9608 -239.2 118.3)">
    <rect x="1940" y="45.02" width="311.2" height="425.2" fill="#fff"/>
   </g>
   <g transform="matrix(.577 0 0 1.147 753.3 65.75)">
    <rect x="1773" y="297.6" width="31.21" height="127.7" fill="#ece8ae"/>
   </g>
   <g transform="matrix(.577 0 0 1.302 802.1 -.2843)">
    <rect x="1773" y="297.6" width="31.21" height="127.7" fill="#ece8ae"/>
   </g>
   <g transform="matrix(.577 0 0 1.147 850.9 65.75)">
    <rect x="1773" y="297.6" width="31.21" height="127.7" fill="#ece8ae"/>
   </g>
   <g transform="matrix(.577 0 0 .9782 899.8 137.5)">
    <rect x="1773" y="297.6" width="31.21" height="127.7" fill="#ece8ae"/>
   </g>
   <g transform="matrix(.577 0 0 1.147 948.7 65.75)">
    <rect x="1773" y="297.6" width="31.21" height="127.7" fill="#ece8ae"/>
   </g>
   <g transform="matrix(.577 0 0 1.322 997.5 -8.65)">
    <rect x="1773" y="297.6" width="31.21" height="127.7" fill="#ece8ae"/>
   </g>
   <g transform="matrix(.577 0 0 1.223 777.7 33.26)">
    <rect x="1773" y="297.6" width="31.21" height="127.7" fill="#ece8ae"/>
   </g>
   <g transform="matrix(.577 0 0 1.223 826.5 33.26)">
    <rect x="1773" y="297.6" width="31.21" height="127.7" fill="#ece8ae"/>
   </g>
   <g transform="matrix(.577 0 0 1.067 875.3 99.72)">
    <rect x="1773" y="297.6" width="31.21" height="127.7" fill="#ece8ae"/>
   </g>
   <g transform="matrix(.577 0 0 1.067 924.2 99.72)">
    <rect x="1773" y="297.6" width="31.21" height="127.7" fill="#ece8ae"/>
   </g>
   <g transform="matrix(.577 0 0 1.223 973.1 33.26)">
    <rect x="1773" y="297.6" width="31.21" height="127.7" fill="#ece8ae"/>
   </g>
   <g transform="matrix(.577 0 0 1.479 1022 -75.69)">
    <rect x="1773" y="297.6" width="31.21" height="127.7" fill="#ece8ae"/>
   </g>
   <g transform="matrix(1.03 0 0 .04403 -239.2 159.6)">
    <rect x="1940" y="45.02" width="311.2" height="425.2" fill="#d7e5e7"/>
   </g>
   <g transform="matrix(2.888 0 0 .5178 -4029 77.93)">
    <rect x="1995" y="80.31" width="129.7" height="81.29" fill="#364052"/>
   </g>
   <g transform="matrix(2.888 0 0 .4142 -4029 95.09)">
    <rect x="1995" y="80.31" width="129.7" height="81.29" fill="#202d44"/>
   </g>
   <g transform="matrix(1.067,0,0,1.107,-48.28,-3.214)">
    <g transform="translate(1155,-53.88)">
     <path d="m774.2 333.3 45.37 0.294-27.46 36.12z" fill="#ece8ae"/>
     <path d="m564.8 376.7 46.62-23.31 86.92 39.82s56.27-27.68 92.16-45.34" fill="none" stroke="#ece8ae" stroke-width="21.75px"/>
    </g>
   </g>
  </g>
  <g transform="matrix(-1.774,0,0,1.58,3497,-163.8)">
   <g transform="matrix(.5637 0 0 .5637 694.8 145.6)">
    <path d="m1748 595c2.9-17.45 10.74-38.69 23.31-61.88 26.46-48.85 75.07-112.1 98.88-173.4 6.88-17.62 12.61-38.16 10.32-56.68-1.4-11.39-5.86-22.23-18.69-27.24-21-7.562-31.91-30.75-24.34-51.74 7.56-21 30.74-31.9 51.74-24.34 37.6 12.41 58.54 37.94 69.61 68.01 13.55 36.75 8.28 83.5-4.54 122.3-5.76 17.42-13.23 35.03-21.55 52.6-18.34 38.73-41.43 76.96-59.82 110.7-9.77 17.93-18.56 33.75-22.38 46.9 22.69-2.025 38.99-3.256 51.9-3.792 14.8-0.614 24.23-0.067 34.49-1.731 13.83-2.245 28.78-6.394 58.43-16.45 9.79-3.177 37.62-15.81 55.1-41.61 12.3-18.16 20.57-41.3 15.04-71.33-1.44-4.709 1.21-9.703 5.92-11.14s9.71 1.213 11.15 5.922c15.75 36.07 11.37 67.64 1.1 93.99-10.29 26.37-28.38 46.4-43.59 59.51 17.93-1.726 34.77-2.321 45.54-0.901 19.84 2.616 32.42 11.76 39.32 18.99 11.38 11.92 18.52 24.91 19.02 63.23 0.66 52-16.85 95.2-187.1 112.5-32.25 3.285-96.52-1.278-124.4-10.76-16.42-5.586-32.63-14.41-46.57-28.01-30.13-5.652-73.58-22.36-93.82-47.24-19.04-23.4-26.5-51.25-9.61-82.96 13.24-24.84 27.83-35.36 44.09-40.22 6.46-1.928 13.48-3.07 21.41-3.205z" fill="#243998"/>
    <clipPath>
     <path d="m1748 595c2.9-17.45 10.74-38.69 23.31-61.88 26.46-48.85 75.07-112.1 98.88-173.4 6.88-17.62 12.61-38.16 10.32-56.68-1.4-11.39-5.86-22.23-18.69-27.24-21-7.562-31.91-30.75-24.34-51.74 7.56-21 30.74-31.9 51.74-24.34 37.6 12.41 58.54 37.94 69.61 68.01 13.55 36.75 8.28 83.5-4.54 122.3-5.76 17.42-13.23 35.03-21.55 52.6-18.34 38.73-41.43 76.96-59.82 110.7-9.77 17.93-18.56 33.75-22.38 46.9 22.69-2.025 38.99-3.256 51.9-3.792 14.8-0.614 24.23-0.067 34.49-1.731 13.83-2.245 28.78-6.394 58.43-16.45 9.79-3.177 37.62-15.81 55.1-41.61 12.3-18.16 20.57-41.3 15.04-71.33-1.44-4.709 1.21-9.703 5.92-11.14s9.71 1.213 11.15 5.922c15.75 36.07 11.37 67.64 1.1 93.99-10.29 26.37-28.38 46.4-43.59 59.51 17.93-1.726 34.77-2.321 45.54-0.901 19.84 2.616 32.42 11.76 39.32 18.99 11.38 11.92 18.52 24.91 19.02 63.23 0.66 52-16.85 95.2-187.1 112.5-32.25 3.285-96.52-1.278-124.4-10.76-16.42-5.586-32.63-14.41-46.57-28.01-30.13-5.652-73.58-22.36-93.82-47.24-19.04-23.4-26.5-51.25-9.61-82.96 13.24-24.84 27.83-35.36 44.09-40.22 6.46-1.928 13.48-3.07 21.41-3.205z"/>
    </clipPath>
    <g clip-path="url(#_clip2-7-5)">
     <g transform="rotate(-12.34,1774,701.7)">
      <path d="m1788 549.7c-13.59 22.15-19.05 49.77-24.81 77.45-2.16 10.36-4.45 20.67-5.93 31.03-2.18 15.32-4.06 30.38-2.73 45.05 1.21 13.35 2.19 26.27 7.42 38.14 2.27 5.161 4.09 10.19 6.43 15.43 7.57 16.93 6.46 30.92 19.76 47.43 4.55 1.902 6.69 7.134 4.79 11.68s-7.13 6.689-11.68 4.787c-19.42 2.526-30.43 0.214-47.67-3.358-7.88-1.633-13.14-4.61-19.89-8.574-30.73-18.03-44.82-53.15-54.94-87.91-6.78-23.32-8.07-48.71-6.12-74.14 1.22-15.89 3.88-31.99 9.06-47.24 13.22-38.95 36.08-73.6 63.03-100.1 13.89-17.46 39.35-20.36 56.81-6.47 17.47 13.89 20.37 39.35 6.47 56.82z" fill="#27296c"/>
     </g>
     <path d="m1919 550c156.7 24.47 240.5 5.817 150.8-125.3" fill="none" stroke="#27296c" stroke-linecap="round" stroke-linejoin="round" stroke-width="107.9px"/>
     <path d="m2097 392.7c6.1 3.594 10.93 6.813 20.81 15.63 4.26 3.807 6.88 7.36 10.89 12.68 2.2 2.917 3.79 5.794 5.36 9.38 2.04 4.64 3.18 9.859 3.93 15.27 4.06 29.09-0.86 63.81-17.15 96.97-12.63 22.48-22.36 37.18-32.16 46.62-12.58 12.12-21.83 16.4-29.84 18.97-8.15 2.61-13.31 2.385-17.35 9.104-0.04 0.148-0.2 0.232-0.34 0.189-0.15-0.044-0.24-0.198-0.19-0.346 0.69-14.55 13.34-12.48 26.53-42.73 4.65-10.66 9.18-24.87 13.4-46.49 4.17-18.06 1.94-35.19 0.53-51.3-1.08-12.33-4.3-23.67-4.53-34.08-0.19-8.425 2.65-14.08 3.77-20.83 2.02-12.13 4.7-17.1 5.39-23.56-1.51-3.022-0.28-6.702 2.74-8.212 3.02-1.511 6.7-0.285 8.21 2.737z" fill="#233997"/>
     <path d="m1945 235.8c28.99 31.18 39.8 67.19 39.47 102-0.38 41.19-17.26 79.47-30.31 105.5l-81.32 132.4c-6.85 19.41-8.83 33.18-5.13 43.53 4.34 12.14 16.48 17.83 32.4 23.11 17.35 6.171 35.24 9.847 55.06 10.79 17.42 0.825 36.17 0.123 57.54-4.548 19.45-3.868 34.59-7.695 46.43-11.7 13.99-4.732 22.92-9.431 27.91-14.63 0.09-0.122 0.27-0.144 0.39-0.05s0.14 0.269 0.05 0.39c-3.94 6.402-11.97 13.25-25.24 21.07-11.1 6.55-25.65 13.46-44.52 21.36-22.59 8.959-42.95 13.9-62.28 15.21-23.05 1.571-44.17-2.294-64.81-8.08-27.39-8.315-45.89-21.07-53.64-41.65-5.82-15.45-5.54-36.45 4.5-65.7 1.61-4.701 7.95-16.21 16.99-30.81 20.64-33.35 55.81-85.66 66.34-105.9 14.41-26.44 31-67.57 30.55-111-0.25-24.2-4.39-49.24-20.04-73.72-2.08-2.664-1.6-6.513 1.06-8.591 2.67-2.078 6.52-1.603 8.6 1.061z" fill="#304abe"/>
     <path d="m1834 396c1.03-4.34 2.38-13.95 8.8-25.48 10.47-18.79 31.23-38.51 35.62-44.3 5.1-5.788 10.1-18.71 17.74-29.86 9.93-14.5 21.64-23.98 25.17-31.52 0.01-0.153 0.15-0.267 0.3-0.255 0.15 0.013 0.27 0.148 0.25 0.301 2.38 8.539 5.21 24.6 1.52 42.97-3.33 16.61-13.29 31.34-18.96 39.18-4.75 5.628-21.49 29.21-38.4 42.97-9.61 7.822-18.47 10.31-21.86 12.78-1.87 2.811-5.68 3.572-8.49 1.698s-3.57-5.678-1.69-8.488z" fill="#27296c"/>
     <path d="m1795 710.2c0.83-2.315 0.19-5-1.79-6.686-2.58-2.188-6.44-1.875-8.63 0.7-0.94 0.566-1.68 6.735-0.41 16.64 1.8 13.98 6.66 35.15 8.05 40.48 2.76 7.723 7.57 21.11 18.43 35.83 7.35 9.979 18.16 19.32 30.88 27.52 20.68 13.33 47.73 22.3 80.29 22.32 34.74-1.075 72.71-7.437 108.6-20.49 35.4-12.87 68.47-31.04 94.51-54.13 10-9.474 18-22.92 22.64-38.69 6.05-20.55 7.45-43.44 5.19-60.91 0-0.153-0.13-0.278-0.28-0.278s-0.28 0.125-0.28 0.278c-1.83 13.98-7.06 30.7-14.76 46.29-7.01 14.2-16.25 26.65-27.56 33.24-26.22 16.49-58.01 27.07-90.85 33.73-32.3 6.549-65.4 8.254-95.23 5.192-16.03-1.235-29.21-6.589-40.64-12.42-10.57-5.399-19.12-12.18-26.86-18.04-13.01-9.861-23.64-16.7-28.42-21.73-4.35-3.721-22.83-20.99-30.2-29.45-0.46-0.53-1.14-0.963-1.63-1.31 0.43-0.903 0.47-1.432-0.51-0.782-0.28 0.184 0.02 0.442 0.51 0.782l-0.32 0.648z" fill="#27296c"/>
     <path d="m1736 555.2c-2.97 7.215-5.37 14.65-11.05 26.8-3.35 7.178-5.16 14.42-9.51 22.65-1.91 3.619-4 7.211-6.3 10.86-4.59 7.287-9.57 14.82-12.72 23.86-5.2 14.92-8.51 32.35-3.3 54 4.2 19.1 10.1 33.81 16.75 46.13 19.54 36.25 43.09 50.38 47.28 64.89 0.07 0.137 0.01 0.304-0.13 0.373-0.13 0.069-0.3 0.013-0.37-0.125-9.66-12.8-40.15-16-71.41-46.6-12.32-12.05-22.98-28.62-33.54-50.24-18.76-41.32-16.3-76.83-4.35-104.9 5.89-13.87 13.67-26.82 24.18-35.39 9.12-7.428 17.81-11.56 27.29-14.74 13.18-4.417 21.38-4.999 29.24-6.848 2.57-2.191 6.44-1.882 8.63 0.69 2.19 2.571 1.88 6.437-0.69 8.628z" fill="#233997"/>
    </g>
   </g>
   <g transform="rotate(-20.13,1662,371.8)">
    <g transform="matrix(.41 .08984 -.09655 .4406 1012 54.94)">
     <path d="m1628 466.6c-0.39 1.475-4.26 8.606-5.97 10.24-1.15 1.094-6.61 5.521-7.6 5.975-5.16 2.357-10.99 2.825-16.56 2.041-3.05-0.429-6.04-1.226-8.92-2.308-2.13-0.801-4.2-1.76-6.2-2.859-1.52-0.84-3-1.763-4.42-2.762-1.16-0.808-2.27-1.667-3.35-2.575-0.9-0.761-1.77-1.556-2.6-2.386-4.46-4.42-8.06-9.919-9.48-16.1-0.29-1.262-0.49-2.546-0.6-3.837-0.1-1.265-0.11-2.538-0.04-3.805 0.05-0.924 0.15-1.845 0.3-2.76 1.06-6.821 4.45-13.09 8.71-18.44 0.79-0.995 1.62-1.963 2.47-2.904 1.11-1.218 2.27-2.391 3.47-3.52 1.53-1.44 3.12-2.809 4.78-4.104 2.11-1.655 4.32-3.191 6.6-4.597 2.99-1.835 6.11-3.455 9.37-4.759 1.23-0.496 2.49-0.945 3.77-1.316 1.02-0.297 2.06-0.549 3.11-0.754 5.72-1.118 11.88-0.862 17.23 1.592 1.11 0.506 2.16 1.107 3.17 1.786 1.17 0.788 2.29 1.661 3.29 2.651 0.53 0.519 1.03 1.074 1.44 1.689 0.21 0.316 3.58-3.035 3.94-3.393 4.22-4.224 13.79-5.772 17.82-0.405 9.71 12.95-12.54 17.06-10.94 21.87 2.89 8.653 18.16 19.43 25.54 23.12 2.88 1.441 19.97 8.692 19.25 11.55-1.48 5.927-21.61 12.26-29.4 10.7-7.38-1.476-14.5-5.72-21.46-8.506-0.72-0.285-5.11-1.738-6.71-1.155z" fill="#233997"/>
     <clipPath>
      <path d="m1628 466.6c-0.39 1.475-4.26 8.606-5.97 10.24-1.15 1.094-6.61 5.521-7.6 5.975-5.16 2.357-10.99 2.825-16.56 2.041-3.05-0.429-6.04-1.226-8.92-2.308-2.13-0.801-4.2-1.76-6.2-2.859-1.52-0.84-3-1.763-4.42-2.762-1.16-0.808-2.27-1.667-3.35-2.575-0.9-0.761-1.77-1.556-2.6-2.386-4.46-4.42-8.06-9.919-9.48-16.1-0.29-1.262-0.49-2.546-0.6-3.837-0.1-1.265-0.11-2.538-0.04-3.805 0.05-0.924 0.15-1.845 0.3-2.76 1.06-6.821 4.45-13.09 8.71-18.44 0.79-0.995 1.62-1.963 2.47-2.904 1.11-1.218 2.27-2.391 3.47-3.52 1.53-1.44 3.12-2.809 4.78-4.104 2.11-1.655 4.32-3.191 6.6-4.597 2.99-1.835 6.11-3.455 9.37-4.759 1.23-0.496 2.49-0.945 3.77-1.316 1.02-0.297 2.06-0.549 3.11-0.754 5.72-1.118 11.88-0.862 17.23 1.592 1.11 0.506 2.16 1.107 3.17 1.786 1.17 0.788 2.29 1.661 3.29 2.651 0.53 0.519 1.03 1.074 1.44 1.689 0.21 0.316 3.58-3.035 3.94-3.393 4.22-4.224 13.79-5.772 17.82-0.405 9.71 12.95-12.54 17.06-10.94 21.87 2.89 8.653 18.16 19.43 25.54 23.12 2.88 1.441 19.97 8.692 19.25 11.55-1.48 5.927-21.61 12.26-29.4 10.7-7.38-1.476-14.5-5.72-21.46-8.506-0.72-0.285-5.11-1.738-6.71-1.155z"/>
     </clipPath>
     <g clip-path="url(#_clip3-4-2)">
      <g transform="matrix(1.312 -.2674 .2874 1.221 -691.2 353.6)">
       <path d="m1704 423.4c0-4.806-17.04-19.41-19.63-16.39-1.62 1.888-1.93 5.972-3.65 7.694-0.89 0.885-13.35 7.483-14.5 8.138-7.51 4.307-10.29 8.628-9.6 17.72 0.76 9.988 12.06 18.47 12.95 18.25 5.41-1.353 11.24-13.73 13.57-19.3 1.62-3.905 6.21 0.241 9.44-2.801 4.37-4.104 11.42-6.237 11.42-13.31z" fill="#282a6f"/>
      </g>
     </g>
    </g>
    <g transform="matrix(.5637 0 0 .5637 694.8 148.7)">
     <path d="m1698 454.5c19.56 16.28 38.46 27.08 55.46 32.05 15.15 4.433 28.56 4.232 38.99-1.606 4.65-2.608 10.55-0.945 13.16 3.712 2.61 4.656 0.94 10.56-3.71 13.16-11.69 6.55-26.02 8.681-42.17 5.993-21.92-3.646-47.59-16.38-74.1-38.45-4.11-3.415-4.66-9.518-1.25-13.62s9.52-4.661 13.62-1.246z" fill="#233997"/>
    </g>
   </g>
   <g transform="matrix(-.511 -.8596 -.8596 .511 2991 1643)">
    <g transform="matrix(.41 .08984 -.09655 .4406 1012 54.94)">
     <path d="m1628 466.6c-0.39 1.475-4.26 8.606-5.97 10.24-1.15 1.094-6.61 5.521-7.6 5.975-5.16 2.357-10.99 2.825-16.56 2.041-3.05-0.429-6.04-1.226-8.92-2.308-2.13-0.801-4.2-1.76-6.2-2.859-1.52-0.84-3-1.763-4.42-2.762-1.16-0.808-2.27-1.667-3.35-2.575-0.9-0.761-1.77-1.556-2.6-2.386-4.46-4.42-8.06-9.919-9.48-16.1-0.29-1.262-0.49-2.546-0.6-3.837-0.1-1.265-0.11-2.538-0.04-3.805 0.05-0.924 0.15-1.845 0.3-2.76 1.06-6.821 4.45-13.09 8.71-18.44 0.79-0.995 1.62-1.963 2.47-2.904 1.11-1.218 2.27-2.391 3.47-3.52 1.53-1.44 3.12-2.809 4.78-4.104 2.11-1.655 4.32-3.191 6.6-4.597 2.99-1.835 6.11-3.455 9.37-4.759 1.23-0.496 2.49-0.945 3.77-1.316 1.02-0.297 2.06-0.549 3.11-0.754 5.72-1.118 11.88-0.862 17.23 1.592 1.11 0.506 2.16 1.107 3.17 1.786 1.17 0.788 2.29 1.661 3.29 2.651 0.53 0.519 1.03 1.074 1.44 1.689 0.21 0.316 3.58-3.035 3.94-3.393 4.22-4.224 13.79-5.772 17.82-0.405 9.71 12.95-12.54 17.06-10.94 21.87 2.89 8.653 18.16 19.43 25.54 23.12 2.88 1.441 19.97 8.692 19.25 11.55-1.48 5.927-21.61 12.26-29.4 10.7-7.38-1.476-14.5-5.72-21.46-8.506-0.72-0.285-5.11-1.738-6.71-1.155z" fill="#233997"/>
     <clipPath>
      <path d="m1628 466.6c-0.39 1.475-4.26 8.606-5.97 10.24-1.15 1.094-6.61 5.521-7.6 5.975-5.16 2.357-10.99 2.825-16.56 2.041-3.05-0.429-6.04-1.226-8.92-2.308-2.13-0.801-4.2-1.76-6.2-2.859-1.52-0.84-3-1.763-4.42-2.762-1.16-0.808-2.27-1.667-3.35-2.575-0.9-0.761-1.77-1.556-2.6-2.386-4.46-4.42-8.06-9.919-9.48-16.1-0.29-1.262-0.49-2.546-0.6-3.837-0.1-1.265-0.11-2.538-0.04-3.805 0.05-0.924 0.15-1.845 0.3-2.76 1.06-6.821 4.45-13.09 8.71-18.44 0.79-0.995 1.62-1.963 2.47-2.904 1.11-1.218 2.27-2.391 3.47-3.52 1.53-1.44 3.12-2.809 4.78-4.104 2.11-1.655 4.32-3.191 6.6-4.597 2.99-1.835 6.11-3.455 9.37-4.759 1.23-0.496 2.49-0.945 3.77-1.316 1.02-0.297 2.06-0.549 3.11-0.754 5.72-1.118 11.88-0.862 17.23 1.592 1.11 0.506 2.16 1.107 3.17 1.786 1.17 0.788 2.29 1.661 3.29 2.651 0.53 0.519 1.03 1.074 1.44 1.689 0.21 0.316 3.58-3.035 3.94-3.393 4.22-4.224 13.79-5.772 17.82-0.405 9.71 12.95-12.54 17.06-10.94 21.87 2.89 8.653 18.16 19.43 25.54 23.12 2.88 1.441 19.97 8.692 19.25 11.55-1.48 5.927-21.61 12.26-29.4 10.7-7.38-1.476-14.5-5.72-21.46-8.506-0.72-0.285-5.11-1.738-6.71-1.155z"/>
     </clipPath>
     <g clip-path="url(#_clip4-0-1)">
      <g transform="matrix(1.312 -.2674 .2874 1.221 -691.2 353.6)">
       <path d="m1704 423.4c0-4.806-17.04-19.41-19.63-16.39-1.62 1.888-1.93 5.972-3.65 7.694-0.89 0.885-13.35 7.483-14.5 8.138-7.51 4.307-10.29 8.628-9.6 17.72 0.76 9.988 12.06 18.47 12.95 18.25 5.41-1.353 11.24-13.73 13.57-19.3 1.62-3.905 6.21 0.241 9.44-2.801 4.37-4.104 11.42-6.237 11.42-13.31z" fill="#282a6f"/>
      </g>
     </g>
    </g>
    <g transform="matrix(.5637 0 0 .5637 694.8 148.7)">
     <path d="m1685 469.4c26.51 22.07 52.18 34.8 74.1 38.45 16.15 2.688 30.48 0.557 42.17-5.993 4.65-2.608 6.32-8.507 3.71-13.16-2.61-4.657-8.51-6.32-13.16-3.712-10.43 5.838-23.84 6.039-38.99 1.606-17-4.978-35.9-15.77-55.46-32.05-4.1-3.415-10.21-2.856-13.62 1.246s-2.86 10.2 1.25 13.62z" fill="#233997"/>
    </g>
   </g>
   <g transform="matrix(1.019 -.2727 .2727 1.019 -136.8 464.6)">
    <g transform="matrix(1.222,0,0,1.345,-474,109.1)">
     <path d="m1844 120.4c-4.31-1.464-10.22-3.075-17.36-2.908-6.12 0.143-11.53 2.118-16.93 5.2-2.24 1.284-4.76 2.28-6.69 4.054-6.75 6.188-11.54 16.25-11.99 25.12-0.7 13.63 0.21 19.97 1.48 23.52 0.42 1.177 3.01 4.065 4.07 4.772 1.41 0.941 5.38 1.127 6.84 0.862 5.7-1.038 7.85-2.594 15.81-5.18 17.2-5.589 23.68-10.87 33.76-23 4.65-5.602 17.22-6.162 15.93-10.09-2.48-7.523-12.06-17.97-24.92-22.34z" fill="#233997"/>
     <clipPath>
      <path d="m1844 120.4c-4.31-1.464-10.22-3.075-17.36-2.908-6.12 0.143-11.53 2.118-16.93 5.2-2.24 1.284-4.76 2.28-6.69 4.054-6.75 6.188-11.54 16.25-11.99 25.12-0.7 13.63 0.21 19.97 1.48 23.52 0.42 1.177 3.01 4.065 4.07 4.772 1.41 0.941 5.38 1.127 6.84 0.862 5.7-1.038 7.85-2.594 15.81-5.18 17.2-5.589 23.68-10.87 33.76-23 4.65-5.602 17.22-6.162 15.93-10.09-2.48-7.523-12.06-17.97-24.92-22.34z"/>
     </clipPath>
     <g clip-path="url(#_clip5-2-7)">
      <path d="m1842 110.4c-13.02-0.43-36.58 8.959-40.13 18.14-5.33 13.77-6.91 36.93-3.99 38.14 7.07 2.937 30.3-23.11 37.16-25.07 15.12-4.317 25.36-2.662 34.56 8.92 7.04 8.867 18.15-38.61-27.6-40.12z" fill="#304abe"/>
     </g>
    </g>
    <g transform="rotate(-8.567,2854,750.1)">
     <path d="m1779 190.4c2.06-0.612 4.08-1.436 5.9-2.231 3.35-1.468 5.08-2.448 7.18-5.477 0.79-1.139 4.33 1.252 3.51 2.43-2.52 3.64-4.95 5.193-8.98 6.957-2.27 0.99-4.82 1.991-7.38 2.677-3.96 1.453-10.5 6.418-12.46 9.679-0.6 1.01-1.91 1.338-2.92 0.732s-1.34-1.918-0.73-2.928c1.21-2.025 3.91-4.61 6.88-6.865-1.06-0.127-2.13-0.282-3.22-0.409-2.12-0.248-4.31-0.388-6.47 0.288-1.12 0.353-2.32-0.274-2.67-1.398s0.27-2.322 1.4-2.675c2.75-0.861 5.53-0.771 8.24-0.455 2.3 0.269 4.54 0.715 6.64 0.62 1.28-0.058 2.61-0.289 3.94-0.627 0.23-0.089 0.46-0.167 0.68-0.233 0.16-0.046 0.31-0.074 0.46-0.085z" fill="#e65050"/>
    </g>
    <g transform="matrix(.9656 0 0 .9605 -16.08 159.3)">
     <ellipse cx="1802" cy="131.7" rx="10.87" ry="10.93" fill="#fff"/>
     <clipPath>
      <ellipse cx="1802" cy="131.7" rx="10.87" ry="10.93"/>
     </clipPath>
     <g clip-path="url(#_clip6-8-9)">
      <g transform="matrix(2.513 .01588 -.003871 .6193 -2918 31.75)">
       <ellipse cx="1878" cy="113.2" rx="1.97" ry="8.037" fill="#282a6f"/>
       <clipPath>
        <ellipse cx="1878" cy="113.2" rx="1.97" ry="8.037"/>
       </clipPath>
       <g clip-path="url(#_clip7-0-6)">
        <g transform="matrix(-.1795 -.191 -.03838 .6002 2169 257.3)">
         <ellipse cx="1565" cy="253.6" rx="3.506" ry="4.341" fill="#fff"/>
        </g>
       </g>
      </g>
     </g>
     <ellipse cx="1802" cy="131.7" rx="10.87" ry="10.93" fill="none" stroke="#282a6f" stroke-linecap="round" stroke-linejoin="round" stroke-width="2.37px"/>
    </g>
    <g transform="matrix(.9656 0 0 .9605 34.45 171.7)">
     <ellipse cx="1802" cy="131.7" rx="10.87" ry="10.93" fill="#fff"/>
     <clipPath>
      <ellipse cx="1802" cy="131.7" rx="10.87" ry="10.93"/>
     </clipPath>
     <g clip-path="url(#_clip8-3-6)">
      <g transform="matrix(2.513 -.0002437 5.939e-5 .6191 -2919 62.06)">
       <ellipse cx="1878" cy="113.2" rx="1.97" ry="8.037" fill="#282a6f"/>
       <clipPath>
        <ellipse cx="1878" cy="113.2" rx="1.97" ry="8.037"/>
       </clipPath>
       <g clip-path="url(#_clip9-7-6)">
        <g transform="matrix(-.1787 -.1957 -.03922 .5992 2168 265.6)">
         <ellipse cx="1565" cy="253.6" rx="3.506" ry="4.341" fill="#fff"/>
        </g>
       </g>
      </g>
     </g>
     <ellipse cx="1802" cy="131.7" rx="10.87" ry="10.93" fill="none" stroke="#282a6f" stroke-linecap="round" stroke-linejoin="round" stroke-width="2.37px"/>
    </g>
    <g transform="matrix(-.4943 -.2708 -.2708 .4943 2666 673.1)">
     <path d="m1747 262.6c0.46 0.59 1.85 6.139 2.14 7.141 0.58 2.057-0.61 4.203-2.67 4.791-2.05 0.587-4.2-0.605-4.78-2.662-0.37-1.291-1.46-5.48-1.57-6.172-0.21-1.339 0.21-2.14 0.31-2.353 0.8-1.701 2.13-2.188 3.39-2.227 0.73-0.023 2.04 0.038 3.18 1.482z" fill="#282a6f"/>
    </g>
    <g transform="matrix(-.5632 .02229 .02229 .5632 2698 139.3)">
     <path d="m1747 262.6c0.46 0.59 1.85 6.139 2.14 7.141 0.58 2.057-0.61 4.203-2.67 4.791-2.05 0.587-4.2-0.605-4.78-2.662-0.37-1.291-1.46-5.48-1.57-6.172-0.21-1.339 0.21-2.14 0.31-2.353 0.8-1.701 2.13-2.188 3.39-2.227 0.73-0.023 2.04 0.038 3.18 1.482z" fill="#282a6f"/>
    </g>
   </g>
  </g>
  <g transform="matrix(-2.109,0,0,2.109,4200,-44.12)">
   <g transform="translate(-173.4)">
    <g transform="matrix(3.15 0 0 .7274 -3879 97.08)">
     <rect x="1799" y="433.8" width="12.27" height="8.309" fill="#342443"/>
    </g>
    <g transform="matrix(.8823 0 0 .6405 199.1 145.4)">
     <path d="m1854 404.4-39.45-0.492-14.69 13.36h43.82z" fill="#49345c"/>
    </g>
    <g transform="matrix(.8408 0 0 .8408 271.7 66.05)">
     <path d="m1860 402.1-10.83 10.18v7.19l10.83-11.5z" fill="#6a4e71"/>
    </g>
    <g transform="matrix(1.008,0,0,1,-8.943,-5.727)">
     <path d="m1822 266.2-4.64-3.923v153.5l4.37-4.054z" fill="#6a4e71"/>
    </g>
    <g transform="translate(-.7224 -5.727)">
     <rect x="1801" y="262.3" width="22.26" height="153.5" fill="#342443"/>
    </g>
   </g>
   <g transform="matrix(1.047,0,0,1,-77.44,-2.454)">
    <path d="m1653 285.4 149.2-0.027c0.45 0 0.81-0.376 0.81-0.841 0-0.464-0.36-0.84-0.81-0.84l-149.2 0.026c-0.44 1e-3 -0.8 0.377-0.8 0.841s0.36 0.841 0.8 0.841z" fill="#26202e"/>
   </g>
   <g transform="matrix(1.047,0,0,1,-77.14,20.09)">
    <path d="m1653 285.4 149.2-0.027c0.45 0 0.81-0.376 0.81-0.841 0-0.464-0.36-0.84-0.81-0.84l-149.2 0.026c-0.44 1e-3 -0.8 0.377-0.8 0.841s0.36 0.841 0.8 0.841z" fill="#26202e"/>
   </g>
   <g transform="matrix(1.047,0,0,1,-77.14,42.52)">
    <path d="m1653 285.4 149.2-0.027c0.45 0 0.81-0.376 0.81-0.841 0-0.464-0.36-0.84-0.81-0.84l-149.2 0.026c-0.44 1e-3 -0.8 0.377-0.8 0.841s0.36 0.841 0.8 0.841z" fill="#26202e"/>
   </g>
   <g transform="matrix(1.047,0,0,1,-77.14,66.63)">
    <path d="m1653 285.4 149.2-0.027c0.45 0 0.81-0.376 0.81-0.841 0-0.464-0.36-0.84-0.81-0.84l-149.2 0.026c-0.44 1e-3 -0.8 0.377-0.8 0.841s0.36 0.841 0.8 0.841z" fill="#26202e"/>
   </g>
   <g transform="matrix(3.15 0 0 .7274 -3879 97.08)">
    <rect x="1799" y="433.8" width="12.27" height="8.309" fill="#342443"/>
   </g>
   <g transform="matrix(.8823 0 0 .6405 199.1 145.4)">
    <path d="m1854 404.4-39.45-0.492-14.69 13.36h43.82z" fill="#513a67"/>
   </g>
   <g transform="matrix(.8408 0 0 .8408 271.7 66.05)">
    <path d="m1860 402.1-10.83 10.18v7.19l10.83-11.5z" fill="#6a4e71"/>
   </g>
   <g transform="matrix(1.008,0,0,1,-8.943,-5.727)">
    <path d="m1822 266.2-4.64-3.923v153.5l4.37-4.054z" fill="#6a4e71"/>
   </g>
   <g transform="translate(-.7224 -5.727)">
    <rect x="1801" y="262.3" width="22.26" height="153.5" fill="#342443"/>
   </g>
   <g transform="matrix(.9322 0 0 .8969 112.9 29.64)">
    <ellipse cx="1666" cy="281.5" rx="10.19" ry="10.59" fill="#fcd10c"/>
    <clipPath>
     <ellipse cx="1666" cy="281.5" rx="10.19" ry="10.59"/>
    </clipPath>
    <g clip-path="url(#_clip10-8)">
     <g transform="matrix(1.165,0,0,1.185,-278.5,-49.07)">
      <ellipse cx="1666" cy="281.5" rx="10.19" ry="10.59" fill="#dab215"/>
     </g>
    </g>
   </g>
   <g transform="matrix(.9322 0 0 .8969 134.5 29.64)">
    <ellipse cx="1666" cy="281.5" rx="10.19" ry="10.59" fill="#fcd10c"/>
    <clipPath>
     <ellipse cx="1666" cy="281.5" rx="10.19" ry="10.59"/>
    </clipPath>
    <g clip-path="url(#_clip11-9)">
     <g transform="matrix(1.165,0,0,1.185,-278.5,-49.07)">
      <ellipse cx="1666" cy="281.5" rx="10.19" ry="10.59" fill="#dab215"/>
     </g>
    </g>
   </g>
   <g transform="matrix(.9322 0 0 .8969 155.9 29.64)">
    <ellipse cx="1666" cy="281.5" rx="10.19" ry="10.59" fill="#fcd10c"/>
    <clipPath>
     <ellipse cx="1666" cy="281.5" rx="10.19" ry="10.59"/>
    </clipPath>
    <g clip-path="url(#_clip12-0)">
     <g transform="matrix(1.165,0,0,1.185,-278.5,-49.07)">
      <ellipse cx="1666" cy="281.5" rx="10.19" ry="10.59" fill="#dab215"/>
     </g>
    </g>
   </g>
   <g transform="matrix(.9322 0 0 .8969 177.5 29.64)">
    <ellipse cx="1666" cy="281.5" rx="10.19" ry="10.59" fill="#fcd10c"/>
    <clipPath>
     <ellipse cx="1666" cy="281.5" rx="10.19" ry="10.59"/>
    </clipPath>
    <g clip-path="url(#_clip13-3)">
     <g transform="matrix(1.165,0,0,1.185,-278.5,-49.07)">
      <ellipse cx="1666" cy="281.5" rx="10.19" ry="10.59" fill="#dab215"/>
     </g>
    </g>
   </g>
   <g transform="translate(.6568 .4018)">
    <g transform="matrix(.9322 0 0 .8969 112.9 97.93)">
     <ellipse cx="1666" cy="281.5" rx="10.19" ry="10.59" fill="#fcd10c"/>
     <clipPath>
      <ellipse cx="1666" cy="281.5" rx="10.19" ry="10.59"/>
     </clipPath>
     <g clip-path="url(#_clip14-5)">
      <g transform="matrix(1.165,0,0,1.185,-278.5,-49.07)">
       <ellipse cx="1666" cy="281.5" rx="10.19" ry="10.59" fill="#dab215"/>
      </g>
     </g>
    </g>
    <g transform="matrix(.9322 0 0 .8969 134.5 97.93)">
     <ellipse cx="1666" cy="281.5" rx="10.19" ry="10.59" fill="#fcd10c"/>
     <clipPath>
      <ellipse cx="1666" cy="281.5" rx="10.19" ry="10.59"/>
     </clipPath>
     <g clip-path="url(#_clip15-2)">
      <g transform="matrix(1.165,0,0,1.185,-278.5,-49.07)">
       <ellipse cx="1666" cy="281.5" rx="10.19" ry="10.59" fill="#dab215"/>
      </g>
     </g>
    </g>
    <g transform="matrix(.9322 0 0 .8969 209.5 97.93)">
     <ellipse cx="1666" cy="281.5" rx="10.19" ry="10.59" fill="#fcd10c"/>
     <clipPath>
      <ellipse cx="1666" cy="281.5" rx="10.19" ry="10.59"/>
     </clipPath>
     <g clip-path="url(#_clip16-8)">
      <g transform="matrix(1.165,0,0,1.185,-278.5,-49.07)">
       <ellipse cx="1666" cy="281.5" rx="10.19" ry="10.59" fill="#dab215"/>
      </g>
     </g>
    </g>
    <g transform="matrix(.9322 0 0 .8969 231.1 97.93)">
     <ellipse cx="1666" cy="281.5" rx="10.19" ry="10.59" fill="#fcd10c"/>
     <clipPath>
      <ellipse cx="1666" cy="281.5" rx="10.19" ry="10.59"/>
     </clipPath>
     <g clip-path="url(#_clip17-7)">
      <g transform="matrix(1.165,0,0,1.185,-278.5,-49.07)">
       <ellipse cx="1666" cy="281.5" rx="10.19" ry="10.59" fill="#dab215"/>
      </g>
     </g>
    </g>
   </g>
   <g transform="matrix(.9322 0 0 .8969 113.6 52.23)">
    <ellipse cx="1666" cy="281.5" rx="10.19" ry="10.59" fill="#fcd10c"/>
    <clipPath>
     <ellipse cx="1666" cy="281.5" rx="10.19" ry="10.59"/>
    </clipPath>
    <g clip-path="url(#_clip18-6)">
     <g transform="matrix(1.165,0,0,1.185,-278.5,-49.07)">
      <ellipse cx="1666" cy="281.5" rx="10.19" ry="10.59" fill="#dab215"/>
     </g>
    </g>
   </g>
   <g transform="matrix(.9322 0 0 .8969 135.1 52.23)">
    <ellipse cx="1666" cy="281.5" rx="10.19" ry="10.59" fill="#fcd10c"/>
    <clipPath>
     <ellipse cx="1666" cy="281.5" rx="10.19" ry="10.59"/>
    </clipPath>
    <g clip-path="url(#_clip19-2)">
     <g transform="matrix(1.165,0,0,1.185,-278.5,-49.07)">
      <ellipse cx="1666" cy="281.5" rx="10.19" ry="10.59" fill="#dab215"/>
     </g>
    </g>
   </g>
   <g transform="matrix(.9322 0 0 .8969 156.6 52.23)">
    <ellipse cx="1666" cy="281.5" rx="10.19" ry="10.59" fill="#fcd10c"/>
    <clipPath>
     <ellipse cx="1666" cy="281.5" rx="10.19" ry="10.59"/>
    </clipPath>
    <g clip-path="url(#_clip20-3)">
     <g transform="matrix(1.165,0,0,1.185,-278.5,-49.07)">
      <ellipse cx="1666" cy="281.5" rx="10.19" ry="10.59" fill="#dab215"/>
     </g>
    </g>
   </g>
   <g transform="matrix(.9322 0 0 .8969 233.2 52.23)">
    <ellipse cx="1666" cy="281.5" rx="10.19" ry="10.59" fill="#fcd10c"/>
    <clipPath>
     <ellipse cx="1666" cy="281.5" rx="10.19" ry="10.59"/>
    </clipPath>
    <g clip-path="url(#_clip21-9)">
     <g transform="matrix(1.165,0,0,1.185,-278.5,-49.07)">
      <ellipse cx="1666" cy="281.5" rx="10.19" ry="10.59" fill="#dab215"/>
     </g>
    </g>
   </g>
   <g transform="translate(0,-1.231)">
    <g transform="matrix(.9322 0 0 .8969 113.6 75.2)">
     <ellipse cx="1666" cy="281.5" rx="10.19" ry="10.59" fill="#fcd10c"/>
     <clipPath>
      <ellipse cx="1666" cy="281.5" rx="10.19" ry="10.59"/>
     </clipPath>
     <g clip-path="url(#_clip22-7)">
      <g transform="matrix(1.165,0,0,1.185,-278.5,-49.07)">
       <ellipse cx="1666" cy="281.5" rx="10.19" ry="10.59" fill="#dab215"/>
      </g>
     </g>
    </g>
    <g transform="matrix(.9322 0 0 .8969 190.5 75.2)">
     <ellipse cx="1666" cy="281.5" rx="10.19" ry="10.59" fill="#fcd10c"/>
     <clipPath>
      <ellipse cx="1666" cy="281.5" rx="10.19" ry="10.59"/>
     </clipPath>
     <g clip-path="url(#_clip23-4)">
      <g transform="matrix(1.165,0,0,1.185,-278.5,-49.07)">
       <ellipse cx="1666" cy="281.5" rx="10.19" ry="10.59" fill="#dab215"/>
      </g>
     </g>
    </g>
    <g transform="matrix(.9322 0 0 .8969 212 75.2)">
     <ellipse cx="1666" cy="281.5" rx="10.19" ry="10.59" fill="#fcd10c"/>
     <clipPath>
      <ellipse cx="1666" cy="281.5" rx="10.19" ry="10.59"/>
     </clipPath>
     <g clip-path="url(#_clip24-0)">
      <g transform="matrix(1.165,0,0,1.185,-278.5,-49.07)">
       <ellipse cx="1666" cy="281.5" rx="10.19" ry="10.59" fill="#dab215"/>
      </g>
     </g>
    </g>
    <g transform="matrix(.9322 0 0 .8969 233.2 75.2)">
     <ellipse cx="1666" cy="281.5" rx="10.19" ry="10.59" fill="#fcd10c"/>
     <clipPath>
      <ellipse cx="1666" cy="281.5" rx="10.19" ry="10.59"/>
     </clipPath>
     <g clip-path="url(#_clip25-6)">
      <g transform="matrix(1.165,0,0,1.185,-278.5,-49.07)">
       <ellipse cx="1666" cy="281.5" rx="10.19" ry="10.59" fill="#dab215"/>
      </g>
     </g>
    </g>
   </g>
  </g>
 </g>
</svg>
